<?xml version="1.0" encoding="utf-8"?>
<!-- Generator: Adobe Illustrator 25.2.1, SVG Export Plug-In . SVG Version: 6.00 Build 0)  -->
<svg version="1.1" id="Camada_1" xmlns="http://www.w3.org/2000/svg" xmlns:xlink="http://www.w3.org/1999/xlink" x="0px" y="0px"
	 viewBox="0 0 69.14 45" style="enable-background:new 0 0 69.14 45;" xml:space="preserve">
<style type="text/css">
	.st0{fill:#FFFFFF;}
	.st1{fill:#161D3F;}
	.st2{fill:#CC8C58;}
	.st3{fill:#151821;}
	.st4{fill:#28518C;}
	.st5{fill:#151D49;}
	.st6{fill:#CC7C57;}
	.st7{fill:#EDEDED;}
</style>
<g>
	<g>
		<g>
			<g>
				<path class="st1" d="M18.09,20.21c-0.17-0.04-0.32-0.08-0.47-0.12c-0.14-0.04-0.27-0.09-0.4-0.14
					c-0.12-0.06-0.25-0.12-0.36-0.21c-0.12-0.09-0.23-0.19-0.35-0.31c-0.22-0.22-0.47-0.53-0.73-0.92
					c-0.26-0.39-0.55-0.84-0.87-1.35c-0.32-0.51-0.66-1.07-1.02-1.68c-0.26-0.43-0.41-0.68-0.7-1.14c0,0,0,0-0.01,0
					c-0.57,0.15-1.26,0.27-2.09,0.32c0.05,0.07,0.1,0.14,0.15,0.22c0.36,0.54,0.56,0.9,0.87,1.48c0.32,0.57,0.62,1.11,0.92,1.61
					c0.29,0.51,0.57,0.96,0.85,1.36c0.27,0.4,0.55,0.71,0.83,0.92c0.13,0.11,0.27,0.19,0.4,0.25c0.13,0.07,0.28,0.12,0.45,0.16
					c0.17,0.04,0.36,0.07,0.57,0.08c0.22,0.02,0.46,0.02,0.74,0.02c0.33,0,0.75-0.03,1.24-0.09L18.09,20.21z M9.44,19.83
					c-0.17-0.05-0.26-0.18-0.27-0.4c0-0.26-0.01-0.56-0.01-0.88c-0.01-0.33-0.01-0.7-0.01-1.11v-3.58c0,0,3.99,0.47,6-1.77
					l0.01,0.01c0.54-0.63,0.81-1.45,0.81-2.46c0-1.12-0.4-1.98-1.18-2.56c-0.78-0.59-1.97-0.88-3.54-0.88c-0.14,0-0.34,0-0.59,0.01
					c-0.25,0.01-0.56,0.02-0.92,0.03C9.38,6.26,9.06,6.27,8.81,6.28C8.55,6.28,8.34,6.29,8.18,6.29c-0.84,0-1.7-0.02-2.58-0.04
					l0.02,0.44l1.27,0.4c0.16,0.05,0.24,0.17,0.25,0.35c0,0.22,0.01,0.47,0.01,0.76c0.01,0.27,0.01,0.59,0.01,0.94v8.3
					c0,0.41,0,0.78-0.01,1.12c0,0.34-0.01,0.65-0.01,0.92c-0.02,0.17-0.11,0.27-0.28,0.32L5.6,20.17l0.04,0.44
					c0.87-0.03,1.72-0.03,2.54-0.03c0.81,0,1.62,0.01,2.43,0.03l-0.02-0.44L9.44,19.83z M9.16,7.13c0.25-0.03,0.49-0.05,0.71-0.07
					c0.22-0.01,0.42-0.02,0.62-0.02c1.12,0,1.94,0.24,2.46,0.72c0.52,0.47,0.78,1.23,0.78,2.27c0,1.07-0.27,1.86-0.82,2.36
					c-0.54,0.51-1.41,0.76-2.59,0.76c-0.36,0-0.74-0.02-1.16-0.03V7.13z"/>
				<path class="st1" d="M19.18,11.73c1.33-0.58,2.51-0.87,3.53-0.87c1.05,0,1.88,0.27,2.48,0.82c0.61,0.55,0.91,1.33,0.9,2.36
					l-0.05,4.26c-0.01,0.35,0,0.63,0.03,0.84c0.02,0.21,0.09,0.37,0.18,0.49c0.1,0.11,0.25,0.19,0.44,0.23
					c0.2,0.04,0.46,0.07,0.8,0.08l0.05,0.4c-0.29,0.12-0.65,0.23-1.08,0.35c-0.42,0.12-0.71,0.17-0.86,0.17
					c-0.67,0-1.13-0.34-1.38-1.02c-0.97,0.69-1.88,1.03-2.73,1.03c-0.96,0-1.73-0.23-2.31-0.7c-0.58-0.47-0.87-1.13-0.87-1.98
					c0-1.05,0.47-1.83,1.41-2.32c0.94-0.5,2.41-0.75,4.42-0.75l0.01-0.8c0.01-0.76-0.19-1.33-0.58-1.7c-0.4-0.37-1-0.55-1.82-0.55
					c-0.62,0-1.4,0.12-2.33,0.35L19.18,11.73z M24.14,15.94c-1.44,0-2.41,0.15-2.94,0.44c-0.52,0.29-0.79,0.79-0.79,1.48
					c0,0.65,0.17,1.11,0.52,1.38c0.35,0.27,0.82,0.4,1.42,0.4l0.06,0c0.95,0,1.72-0.77,1.72-1.72L24.14,15.94z"/>
				<path class="st1" d="M38.41,25.14l-1.17-0.36c-0.15-0.05-0.22-0.17-0.23-0.35C37,24.16,37,23.46,37,22.33v-3.08
					c-0.64,0.98-1.18,1.32-1.91,1.67c0,0,0,0,0,0v0.45c0,1.24-0.01,2.27-0.02,3.1c0,0.16-0.09,0.27-0.26,0.32l-1.18,0.35l0.05,0.42
					c0.91-0.03,1.71-0.03,2.38-0.03c0.67,0,1.46,0.01,2.38,0.03L38.41,25.14z M35.09,19.91c0.09-0.05,0.17-0.1,0.25-0.15
					c1.04-0.64,1.65-1.8,1.65-3.02l0-1.14c0-1.31,0.01-2.48,0.03-3.52v-0.09c0.01-0.37,0.02-0.72,0.03-1.05l-0.09-0.07
					c-0.37,0.09-0.71,0.17-1.03,0.25c-0.97-0.17-1.81-0.25-2.51-0.25c-1.73,0-3.08,0.48-4.05,1.45c-0.27,0.26-0.5,0.55-0.69,0.87
					c-0.32,0.51-0.53,1.09-0.65,1.74c-0.07,0.41-0.12,0.84-0.12,1.3c0,1.34,0.37,2.45,1.13,3.33c0.76,0.89,1.77,1.33,3.02,1.33
					c0.24,0,0.47-0.02,0.72-0.06c0.03-0.01,0.07-0.01,0.1-0.02c0.67-0.12,1.37-0.39,2.06-0.81C34.99,19.96,35.04,19.94,35.09,19.91z
					 M30.79,18.61C30.27,17.92,30,16.98,30,15.8c0-1.28,0.29-2.28,0.87-3c0.58-0.71,1.47-1.07,2.66-1.07c0.5,0,1.02,0.07,1.57,0.21
					l0,5.71c0,1.09-0.89,1.98-1.98,1.99h0C32.09,19.64,31.33,19.3,30.79,18.61z"/>
				<path class="st1" d="M46.76,19.68c-1.07,0.79-2.13,1.19-3.2,1.19c-1.07,0-1.88-0.27-2.41-0.82s-0.8-1.31-0.8-2.3v-2.17
					c0-1.46-0.01-2.56-0.04-3.29l-1.36-0.37l-0.05-0.35c1.2-0.22,2.3-0.46,3.33-0.72l0.09,0.07c-0.04,0.8-0.06,1.83-0.06,3.08v3.25
					c0,0.83,0.19,1.42,0.58,1.8c0.39,0.37,0.94,0.56,1.64,0.56c0.23,0,0.47-0.02,0.71-0.06c0.85-0.15,1.47-0.9,1.47-1.76v-3.1
					c0-0.96-0.01-1.76-0.04-2.41l-1.35-0.37l-0.05-0.35c1.19-0.22,2.29-0.46,3.32-0.72l0.09,0.07c-0.04,0.82-0.06,1.87-0.06,3.14
					c0,2.48,0.01,3.99,0.02,4.53c0.01,0.28,0.03,0.5,0.06,0.68c0.03,0.17,0.1,0.3,0.19,0.39c0.1,0.09,0.24,0.16,0.42,0.19
					c0.19,0.04,0.44,0.06,0.75,0.07l0.05,0.4c-0.31,0.12-0.68,0.24-1.08,0.35c-0.41,0.11-0.69,0.17-0.84,0.17
					C47.44,20.86,46.98,20.47,46.76,19.68z"/>
				<path class="st1" d="M61.15,6.22L61.1,5.88c1.21-0.23,2.32-0.47,3.35-0.73l0.09,0.08c-0.04,1.11-0.06,2.66-0.06,4.64v6.66
					c0,1.22,0.01,2.2,0.02,2.95c0.02,0.2,0.12,0.32,0.29,0.37l1.12,0.34l0.03,0.42c-0.92-0.02-1.72-0.03-2.39-0.03
					c-0.67,0-1.47,0.01-2.38,0.03l-0.04-0.42l1.16-0.34c0.17-0.05,0.26-0.16,0.28-0.33c0.01-0.77,0.02-1.63,0.02-2.58v-4.21
					c0-2.54-0.01-4.58-0.04-6.11L61.15,6.22z"/>
				<path class="st1" d="M59.8,19.42l0.06,0.44c-0.57,0.36-1.17,0.62-1.79,0.77c-0.61,0.16-1.18,0.24-1.71,0.24
					c-1.5,0-2.71-0.43-3.64-1.29c-0.92-0.86-1.38-2.04-1.38-3.56c0-1.52,0.42-2.76,1.29-3.71c0.86-0.97,2.01-1.45,3.46-1.45
					c1.22,0,2.16,0.37,2.83,1.08c0.69,0.74,1.02,1.78,1.01,3.11c-0.01,0.26-0.22,0.46-0.48,0.46h-4.6c-0.25,0-0.46-0.19-0.46-0.42
					c0-0.23,0.21-0.42,0.46-0.42h2.98v-0.3c0-0.97-0.15-1.67-0.46-2.08c-0.3-0.42-0.76-0.62-1.36-0.62c-0.8,0-1.41,0.29-1.82,0.88
					c-0.31,0.42-0.52,0.92-0.62,1.47c0,0,0,0.01-0.01,0.03c-0.01,0.03-0.01,0.08-0.02,0.15c-0.02,0.08-0.03,0.17-0.03,0.27
					c-0.01,0.06-0.02,0.12-0.02,0.19c-0.02,0.24-0.04,0.53-0.04,0.85v0.11c0,0.17,0.01,0.33,0.02,0.48
					c0.08,1.17,0.42,2.02,1.02,2.56c0.68,0.63,1.77,0.95,3.23,0.95C58.36,19.6,59.06,19.54,59.8,19.42z"/>
			</g>
			<g>
				<path class="st1" d="M9.16,27.95v8.32c0,0.76,0.01,1.51,0.02,2.24h4.99l1.31-2.71l0.46-0.07l-0.23,3.66l-0.06,0.07
					c-1.77-0.02-3.4-0.03-4.9-0.03H8.17c-0.83,0-1.67,0.01-2.54,0.03L5.6,39.03l1.26-0.38c0.17-0.05,0.26-0.15,0.28-0.32
					c0.01-0.27,0.01-0.58,0.02-0.92c0-0.34,0-0.71,0-1.12v-8.3c0-0.35,0-0.66,0-0.94c0-0.28-0.01-0.53-0.02-0.76
					C7.12,26.11,7.04,26,6.89,25.94l-1.27-0.4L5.6,25.1c0.88,0.03,1.73,0.04,2.54,0.04c0.82,0,1.67-0.01,2.54-0.04l0.04,0.44
					l-1.27,0.38c-0.16,0.04-0.25,0.15-0.27,0.32c-0.01,0.24-0.01,0.59-0.02,1.04C9.16,27.74,9.16,27.96,9.16,27.95z"/>
				<path class="st1" d="M27.13,30.43c1.2-0.22,2.3-0.46,3.33-0.72l0.09,0.07c-0.04,0.89-0.06,1.86-0.06,2.93v3.93
					c0,0.82,0.01,1.39,0.02,1.7c0.01,0.18,0.1,0.3,0.26,0.36l1.19,0.35l0.02,0.42c-0.94-0.02-1.75-0.03-2.42-0.03
					c-0.67,0-1.47,0.01-2.39,0.03l-0.04-0.42l1.19-0.35c0.16-0.05,0.24-0.16,0.26-0.32c0.01-0.27,0.02-0.71,0.02-1.34v-3.42
					c0-0.89-0.01-1.72-0.04-2.48l-1.36-0.37L27.13,30.43z M30.51,26.99c0,0.36-0.11,0.66-0.34,0.89c-0.23,0.23-0.51,0.34-0.87,0.34
					c-0.34,0-0.62-0.11-0.83-0.32c-0.22-0.21-0.32-0.49-0.32-0.84c0-0.37,0.11-0.66,0.34-0.87c0.23-0.22,0.52-0.32,0.89-0.32
					c0.33,0,0.61,0.1,0.82,0.29C30.4,26.35,30.51,26.63,30.51,26.99z"/>
				<path class="st1" d="M36.18,31.06c-0.04,2.31-0.06,4.17-0.06,5.58c0,0.71,0.11,1.2,0.32,1.47c0.21,0.27,0.61,0.4,1.21,0.4
					c0.47,0,1.08-0.06,1.84-0.18l0.06,0.46c-1.18,0.59-2.23,0.89-3.16,0.89c-0.76,0-1.32-0.2-1.69-0.6c-0.37-0.4-0.55-1-0.55-1.81
					c0-1.32,0.02-3.42,0.07-6.27l-1.41-0.35l-0.06-0.42l1.58-0.13l0.72-2.48c0.39-0.1,0.75-0.2,1.07-0.3l0.1,0.07
					c-0.02,0.83-0.03,1.6-0.03,2.31v0.38h3.08v0.97H36.18z"/>
				<path class="st1" d="M25.69,38.27l0.06,0.44c-0.57,0.36-1.17,0.62-1.79,0.77c-0.61,0.16-1.18,0.24-1.71,0.24
					c-1.5,0-2.71-0.43-3.64-1.29c-0.92-0.86-1.38-2.04-1.38-3.56c0-1.52,0.42-2.76,1.29-3.71c0.86-0.97,2.01-1.45,3.46-1.45
					c1.22,0,2.16,0.37,2.83,1.08c0.69,0.74,1.02,1.78,1.01,3.11c-0.01,0.26-0.22,0.46-0.48,0.46h-4.6c-0.25,0-0.46-0.19-0.46-0.42
					c0-0.23,0.21-0.42,0.46-0.42h2.98v-0.3c0-0.97-0.15-1.67-0.46-2.08c-0.3-0.42-0.76-0.62-1.36-0.62c-0.8,0-1.41,0.29-1.82,0.88
					c-0.31,0.42-0.52,0.92-0.62,1.47c0,0,0,0.01-0.01,0.03c-0.01,0.03-0.01,0.08-0.02,0.15c-0.02,0.08-0.03,0.17-0.03,0.27
					c-0.01,0.06-0.02,0.12-0.02,0.19c-0.02,0.24-0.04,0.53-0.04,0.85v0.11c0,0.17,0.01,0.33,0.02,0.48
					c0.08,1.17,0.42,2.02,1.02,2.56c0.68,0.63,1.77,0.95,3.23,0.95C24.25,38.45,24.95,38.39,25.69,38.27z"/>
				<path class="st1" d="M48.7,38.27l0.06,0.44c-0.57,0.36-1.17,0.62-1.79,0.77c-0.61,0.16-1.18,0.24-1.71,0.24
					c-1.5,0-2.71-0.43-3.64-1.29c-0.92-0.86-1.38-2.04-1.38-3.56c0-1.52,0.42-2.76,1.29-3.71c0.86-0.97,2.01-1.45,3.46-1.45
					c1.22,0,2.16,0.37,2.83,1.08c0.69,0.74,1.02,1.78,1.01,3.11c-0.01,0.26-0.22,0.46-0.48,0.46h-4.6c-0.25,0-0.46-0.19-0.46-0.42
					c0-0.23,0.21-0.42,0.46-0.42h2.98v-0.3c0-0.97-0.15-1.67-0.46-2.08c-0.3-0.42-0.76-0.62-1.36-0.62c-0.8,0-1.41,0.29-1.82,0.88
					c-0.31,0.42-0.52,0.92-0.62,1.47c0,0,0,0.01-0.01,0.03c-0.01,0.03-0.01,0.08-0.02,0.15c-0.02,0.08-0.03,0.17-0.03,0.27
					c-0.01,0.06-0.02,0.12-0.02,0.19c-0.02,0.24-0.04,0.53-0.04,0.85v0.11c0,0.17,0.01,0.33,0.02,0.48
					c0.08,1.17,0.42,2.02,1.02,2.56c0.68,0.63,1.77,0.95,3.23,0.95C47.26,38.45,47.96,38.39,48.7,38.27z"/>
			</g>
		</g>
	</g>
</g>
</svg>
