<?xml version="1.0" encoding="utf-8"?>
<!-- Generator: Adobe Illustrator 25.2.1, SVG Export Plug-In . SVG Version: 6.00 Build 0)  -->
<svg version="1.1" id="Camada_1" xmlns="http://www.w3.org/2000/svg" xmlns:xlink="http://www.w3.org/1999/xlink" x="0px" y="0px"
	 viewBox="0 0 45.43 45" style="enable-background:new 0 0 45.43 45;" xml:space="preserve">
<style type="text/css">
	.st0{fill:#EDEDED;}
	.st1{fill:#EDEDED;}
	.st2{fill:#EDEDED;}
	.st3{fill:#EDEDED;}
	.st4{fill:#EDEDED;}
	.st5{fill:#EDEDED;}
	.st6{fill:#EDEDED;}
	.st7{fill:#EDEDED;}
</style>
<g>
	<g>
		<rect x="13.37" y="18.3" class="st1" width="19.53" height="2.79"/>
		<polygon class="st1" points="31.51,9.93 32.9,7.14 13.37,7.14 14.75,9.93 		"/>
		<rect x="16.16" y="23.88" class="st1" width="2.79" height="16.62"/>
		<rect x="21.74" y="23.88" class="st1" width="2.79" height="11.04"/>
		<rect x="27.32" y="23.88" class="st1" width="2.79" height="5.46"/>
		<path class="st1" d="M35.69,12.72H10.58C7.5,12.72,5,15.22,5,18.3c0,3.08,2.5,5.58,5.58,5.58v-2.79c-1.54,0-2.79-1.25-2.79-2.79
			c0-1.54,1.25-2.79,2.79-2.79h25.11c1.54,0,2.78,1.25,2.78,2.79c0,1.54-1.25,2.78-2.78,2.79v2.79c3.08,0,5.58-2.5,5.58-5.58
			C41.26,15.22,38.77,12.72,35.69,12.72z"/>
	</g>
</g>
</svg>
